<?xml version="1.0" encoding="utf-8"?>
<!-- Generator: Adobe Illustrator 21.1.0, SVG Export Plug-In . SVG Version: 6.00 Build 0)  -->
<svg version="1.1" id="Capa_1" xmlns="http://www.w3.org/2000/svg" xmlns:xlink="http://www.w3.org/1999/xlink" x="0px" y="0px"
	 viewBox="0 0 512 512" style="enable-background:new 0 0 512 512;" xml:space="preserve">
<style type="text/css">
	.st0{fill:#FFFFFF;}
</style>
<g>
	<g>
		<path class="st0" d="M256,217L54.4,15.3c-3.4-3.4-7.4-5.1-11.8-5.1c-4.4,0-8.4,1.7-11.8,5.1L5.1,41C1.7,44.4,0,48.3,0,52.8
			c0,4.5,1.7,8.4,5.1,11.8l239.1,239.1c3.4,3.4,7.4,5.1,11.8,5.1c4.4,0,8.4-1.7,11.8-5.1L506.9,64.6c3.4-3.4,5.1-7.3,5.1-11.8
			s-1.7-8.4-5.1-11.8l-25.6-25.7c-3.4-3.4-7.4-5.1-11.8-5.1c-4.4,0-8.4,1.7-11.8,5.1L256,217z"/>
		<path class="st0" d="M256,414L54.4,212.3c-3.4-3.4-7.4-5.1-11.8-5.1c-4.4,0-8.4,1.7-11.8,5.1L5.1,238c-3.4,3.4-5.1,7.4-5.1,11.8
			c0,4.5,1.7,8.4,5.1,11.8l239.1,239.1c3.4,3.4,7.4,5.1,11.8,5.1c4.4,0,8.4-1.7,11.8-5.1l239.1-239.1c3.4-3.4,5.1-7.3,5.1-11.8
			c0-4.4-1.7-8.4-5.1-11.8l-25.6-25.6c-3.4-3.4-7.4-5.1-11.8-5.1c-4.4,0-8.4,1.7-11.8,5.1L256,414z"/>
	</g>
</g>
</svg>
