<?xml version="1.0" encoding="utf-8"?>
<!-- Generator: Adobe Illustrator 21.1.0, SVG Export Plug-In . SVG Version: 6.00 Build 0)  -->
<svg version="1.1" id="Layer_1" xmlns="http://www.w3.org/2000/svg" xmlns:xlink="http://www.w3.org/1999/xlink" x="0px" y="0px"
	 viewBox="0 0 960 560" style="enable-background:new 0 0 960 560;" xml:space="preserve">
<style type="text/css">
	.st0{fill:#E2E2E2;}
</style>
<g>
	<path class="st0" d="M266.5,427.9c1,1.4,1.4,3.6,1.1,6.4c-0.4,2.8-1.3,4.7-2.8,5.8c-0.3,0.2-2.7,0.6-7.2,1.2
		c-16.4,2.2-28.8,4.3-37.2,6.5c-2.9,0.8-6.4,1.5-10.7,2.2c-4.3,0.7-9.4,1.3-15.3,1.9c-11.7,1.3-18.3,0.8-19.9-1.3
		c-3.1-4.2-3-11.2,0.3-21.1c0.3-1,0.6-2,1-3.2c0.4-1.1,0.6-1.9,0.6-2.4c0.1-4.6,0.6-8.9,1.4-13c0.9-4.1,1.8-8.4,2.7-12.9
		c0.4-2,1.1-4.4,1.8-7.2c0.8-2.8,1.7-6,2.9-9.7c2.3-7.3,3.9-12.8,4.9-16.6c0.1-0.6,0.3-2.1,0.5-4.5c0.1-1.1,0.2-2.1,0.3-2.9
		c0.1-0.8,0.2-1.4,0.3-1.9c0.2-1.5,1.3-3,3.2-4.4c1.5-1.1,3.2-1.6,5-1.6c1.8,0.1,3.3,0.8,4.3,2.3c3.3,4.4,0.2,22-9.3,52.7
		c-0.5,1.5-0.9,3.3-1.3,5.3c-0.4,2-0.8,4.4-1.1,7c-0.4,2.7-0.9,5.7-1.5,9c-0.6,3.3-1.2,6.9-2,10.7c0.7,0.2,1.8,0.3,3.3,0.1
		c1.5-0.1,3.3-0.4,5.4-0.8c4.2-0.8,6.4-1.2,6.5-1.3c0.6-0.1,1.3-0.2,2.3-0.2c0.9-0.1,2.1,0,3.5,0c1.4,0.1,2.6,0,3.7-0.1
		c1.1-0.1,2.1-0.3,2.9-0.5c5.1-1.2,10.4-2.4,15.9-3.7c5.5-1.2,10.4-2.3,14.9-3.2c1.7-0.4,3.3-0.8,4.9-1.2c1.6-0.4,3.3-0.8,5.2-1.2
		C261.1,423.6,264.2,424.8,266.5,427.9z"/>
	<path class="st0" d="M421.1,282c7.8,10.5,13.1,21.9,16,34.1c2.9,12.2,3.4,24.3,1.7,36.3c-1.8,11.9-5.8,23.3-12.1,34.1
		c-6.3,10.8-14.7,20.1-25.2,27.9c-10.5,7.8-21.9,13.1-34,15.9c-12.2,2.9-24.3,3.4-36.3,1.7c-12-1.7-23.4-5.8-34.3-12.1
		c-10.9-6.3-20.2-14.8-28-25.3c-7.8-10.5-13.1-21.9-15.9-34c-2.8-12.2-3.4-24.3-1.5-36.2c1.8-12,5.9-23.4,12.2-34.2
		c6.3-10.8,14.7-20.1,25.2-27.9c10.5-7.8,21.9-13.1,34-15.9c12.2-2.8,24.2-3.4,36.2-1.6c11.9,1.8,23.3,5.8,34.1,12.1
		C404,263,413.3,271.4,421.1,282z M414.6,288.1c-6.9-9.3-15.2-16.7-24.9-22.3c-9.7-5.6-19.9-9.1-30.7-10.7
		c-10.8-1.5-21.7-0.9-32.7,1.7c-11,2.7-21.3,7.5-30.8,14.6c-9.5,7-17.2,15.4-23,25.2c-5.8,9.8-9.5,20-11.2,30.7
		c-1.7,10.7-1.2,21.5,1.3,32.4c2.5,10.9,7.2,21,14.1,30.3c6.9,9.3,15.2,16.7,24.9,22.3c9.7,5.6,19.9,9.2,30.6,10.7
		c10.7,1.6,21.6,1,32.7-1.7c11-2.7,21.3-7.5,30.8-14.6c9.5-7,17.2-15.4,23-25.2c5.8-9.8,9.5-20,11.3-30.8
		c1.7-10.8,1.3-21.6-1.2-32.5C426.1,307.5,421.4,297.4,414.6,288.1z M289.4,318.5l50.6,68.4c2.1-1.1,4.9-2.7,8.2-4.8
		c3.4-2.1,7.2-4.8,11.5-8c7.7-5.7,13.6-10.9,17.7-15.7c4.1-4.7,6.8-9.1,8.2-13.2c1.1-3.6,1.5-7.1,1.1-10.6
		c-0.4-3.5-1.7-6.9-4.1-10.1c-3.4-4.6-7.7-7.3-12.7-8.1c-5-0.7-10.2,0-15.5,2.2l-0.1-0.2c3.3-4.8,5-9.3,5.1-13.4
		c0.1-4.1-1-7.8-3.4-11c-2.4-3.2-5.3-5.3-8.6-6.3c-3.4-1-7-1.1-10.7-0.4c-4,0.6-8,1.9-11.9,3.9c-3.9,2-8.6,5-14,9.1
		c-4.3,3.2-8.5,6.5-12.5,9.9C294.4,313.6,291.4,316.3,289.4,318.5z M327.8,334.3l-12-16.3c0.7-0.7,1.6-1.5,2.7-2.5
		c1.1-1,2.6-2.1,4.4-3.5c4-2.9,7.6-4.5,10.7-4.7c3.2-0.2,5.8,1,7.7,3.7c1.9,2.5,2.2,5.5,1,8.9c-1.2,3.4-4.1,6.8-8.8,10.2
		L327.8,334.3z M350.6,365.1l-14.5-19.6l6-4.4c4.4-3.3,8.7-5.3,12.9-6c4.1-0.8,7.5,0.6,10.2,4.2c2.6,3.5,3,7.2,1.2,11
		c-1.8,3.8-4.8,7.1-8.7,10.1c-1.6,1.1-2.9,2.1-3.9,2.9C352.6,363.9,351.6,364.6,350.6,365.1z"/>
	<path class="st0" d="M589.2,157.6c7.8,10.5,13.1,21.9,16,34.1c2.9,12.2,3.4,24.3,1.6,36.3c-1.8,12-5.9,23.4-12.2,34.2
		c-6.3,10.8-14.7,20.1-25.2,27.9c-10.5,7.8-21.9,13.1-34,15.9c-12.2,2.9-24.2,3.4-36.2,1.6c-11.9-1.8-23.3-5.9-34.2-12.2
		c-10.9-6.3-20.2-14.8-28-25.3c-7.8-10.5-13.1-21.9-15.9-34c-2.8-12.2-3.4-24.2-1.6-36.2c1.8-11.9,5.8-23.3,12.1-34.1
		c6.3-10.8,14.7-20.1,25.2-27.9c10.5-7.8,21.9-13.1,34-15.9c12.2-2.8,24.3-3.4,36.3-1.7c12,1.7,23.4,5.8,34.2,12.1
		C572.1,138.7,581.4,147.1,589.2,157.6z M582.4,164.4c-6.9-9.3-15.2-16.7-24.9-22.3c-9.7-5.6-19.9-9.1-30.7-10.7
		c-10.8-1.5-21.7-0.9-32.7,1.7c-11,2.7-21.3,7.5-30.8,14.6c-9.5,7-17.2,15.4-23,25.2c-5.8,9.8-9.5,20-11.2,30.7
		c-1.7,10.7-1.2,21.5,1.3,32.4c2.5,10.9,7.2,21,14.1,30.3s15.2,16.7,24.9,22.3c9.7,5.6,19.9,9.2,30.6,10.7c10.7,1.6,21.6,1,32.7-1.7
		c11-2.7,21.3-7.5,30.8-14.6c9.5-7,17.2-15.4,23-25.2c5.8-9.8,9.5-20,11.3-30.8c1.7-10.8,1.3-21.6-1.2-32.5
		C594,183.8,589.3,173.7,582.4,164.4z M485.7,199.2l41.7,56.4l17.6-13l-41.7-56.4l21.2-15.7l-9.8-13.3l-59.6,44.1l9.8,13.3
		L485.7,199.2z"/>
	<path class="st0" d="M575.3,408.2l0.5-2.4l0.1-1.4c-0.2-0.6,0.6-1.7,2.2-3.2c0.2-1.1,0.3-1.9,0.4-2.3l1.1-1
		c-0.1-0.3,0.1-1.2,0.7-2.5c0.6-1.3,0.9-2.2,0.9-2.5c-0.5-3.4-0.2-5.6,1.1-6.6c1.1-1,2-1.1,2.6-0.4c2.2,2.5,2.4,6.6,0.8,12.2
		c-0.1,0.5-0.3,1.3-0.5,2.6c-1.3,6.8-3.4,11.8-6,15.2c-2.7,3.4-4.5,6.1-5.6,8.2c-1.1,2.1-3,4.3-5.7,6.7L565,434l-2.2,1.1
		c-0.3,0.1-0.7,0.3-1.2,0.8c-0.7,0.6-1.8,1.8-3.4,3.6c-1.6,1.8-2.7,3-3.2,3.4l-6.5,3.4l-3.7,4.2l-2.9,1.3c-2.2,1.1-4.1,1.8-5.7,2.1
		c-1.6,0.3-3.6,1.2-5.9,2.9c-2.3,1.6-4.7,2.8-7.3,3.5l-10.3,2.6l-3.1,1.2c-2.4,0.9-4.3,1.3-5.5,1.3c-1.2,0-2.2,0.2-2.8,0.6
		c-0.7,0.4-1.2,0.5-1.7,0.2c-0.5-0.2-1.1-0.4-1.9-0.5l-1.7,1.2c-1.2,0.1-2.9-0.4-5.1-1.6c-0.4,0-1,0.1-1.8,0.3
		c-0.8,0.2-1.6,0.2-2.4,0c-0.7-0.2-1.5-0.3-2.4-0.3L484,465l-0.3-0.3c-0.5-0.6-1.4-0.5-2.8,0c-1.4,0.6-2.4,0.7-3,0.4
		c-0.6-0.4-1.3-0.5-1.9-0.5l-1.9-0.9l-2.3,0.1c-0.4,0-1-0.3-1.9-0.7c-0.9-0.4-1.6-0.8-2.1-0.9c-0.5-0.2-1.3-0.6-2.3-1.2l-1.4-0.4
		c-2.9-0.2-4.6-0.6-5.1-1.1l-0.9-1.4l-0.2,0.1c-1.5-0.6-2.9-0.8-4.3-0.7c-1.4,0.1-2.7-0.5-4-2c-0.5-0.6-0.4-1.3,0.4-2
		c1-0.8,2.8-0.9,5.6-0.2l7.7,0.6c2-0.1,3.7-0.1,5.1,0.1c1.4,0.2,3.6,0.4,6.8,0.5c3.1,0.1,4.9,0,5.3-0.3c1.1-0.9,2.5-1.2,4.4-0.8
		c1.9,0.4,2.8,0.6,2.9,0.5l1.5-1c1.5,0.2,3.9,0,7.1-0.7l1.3,0.2c0.1,0,2.5-0.9,7.2-2.8l6.5-1.2l2-1.5c5-2.2,8.7-3.4,11.2-3.8
		c2.5-0.3,4-0.7,4.5-1.1c0.5-0.4,1.2-0.9,1.9-1.5c0.8-0.6,3.3-1.4,7.5-2.5l3.1-3.6c1.6,0.6,2.5,0.9,2.7,0.8c0.2-0.2,0.4-0.5,0.6-1
		c0.2-0.5,0.5-0.8,0.8-1.1c0.3-0.3,2-1.3,5.2-3.1l6.2-3.6l0.3-0.3c0.2-0.1,0.8-0.9,1.8-2.4l0.3-0.3c0.2-0.2,1.1-0.8,2.6-1.7l6.2-6.4
		c0.9-0.9,1.6-2.2,2.1-3.7c0.5-1.6,1-2.5,1.5-2.9C572.9,408.2,574,408,575.3,408.2z"/>
	<path class="st0" d="M651.4,88.8c0.7,0.9,0.6,3.1-0.2,6.5c-0.8,3.3-1.8,7-3.2,11c-0.6,2-1.2,3.6-1.6,4.9c-0.4,1.3-0.8,2.4-1,3.2
		c-0.5,1.2-1.2,3.5-2,6.8c-0.4,1.7-0.7,3.1-1,4.1c-0.3,1-0.4,1.6-0.4,1.8c-0.5,3.3-1.1,8.8-1.8,16.4c-0.4,3.8-0.7,7.2-1.1,10.2
		c-0.3,3-0.6,5.6-0.9,7.9c-0.2,2.3-0.6,4.5-1,6.7c-0.4,2.2-0.8,4.4-1.3,6.6c-0.4,1.4-1.3,2.8-3,4c-1.5,1.1-3.5,1.6-6,1.4
		c-2.5-0.2-4.3-1.1-5.5-2.7c-0.9-1.2-1.3-2.6-1.1-4.2c0.2-1.5,0.6-3.3,1.2-5.5c0.4-1.1,0.6-2,0.7-2.8c0.1-0.8,0.2-1.4,0.3-1.9
		c0.4-5.6,0.8-10.8,1.4-15.7c0.6-4.8,1.2-9.4,2-13.8c0.3-1.4,0.6-2.9,1-4.5c0.4-1.7,0.8-3.5,1.3-5.4c1.1-3.9,2.1-7.5,2.8-10.8
		c0.8-3.3,1.3-6.5,1.7-9.5c-6.1-1.8-11.5-2.2-16.3-1.4c-1.8,0.3-4,0.7-6.8,1c-2.7,0.4-6,0.8-9.7,1.3c-7.5,1-12.7,1.7-15.7,2.2
		c-1.7,0.3-3.3,0.5-4.7,0.8c-1.4,0.3-2.7,0.5-4,0.7c-1.3,0.2-2.6,0.3-3.9,0.4c-1.3,0.1-2.6,0.1-4.1-0.1c-4.9-0.5-9-1.1-12.1-1.8
		c-0.7-0.2-1.5-0.5-2.3-1c-0.8-0.5-1.5-1-2.3-1.5c-0.7-0.6-1.4-1.1-2-1.7c-0.6-0.6-1.1-1.1-1.5-1.6c-0.8-1.1-1.2-2.3-1-3.6
		c0.1-1.3,0.8-2.4,2.1-3.3c1-0.7,2.4-1.1,4.2-1.2c1.7-0.2,4.8-0.2,9.2,0c2.1,0,3.8,0,5.1,0c1.3,0,2.3,0,2.9-0.1
		c3.5-0.2,7.8-0.4,12.8-0.8c5.1-0.4,11-0.8,17.9-1.4c4.8-0.3,9.3-0.7,13.6-1.2c4.3-0.5,8.4-1,12.3-1.5c9.4-1.5,15.7-2.3,18.9-2.2
		c0.9-0.1,1.9,0.3,3,1.1C649.8,87.1,650.7,87.9,651.4,88.8z"/>
</g>
</svg>
