<svg id="Layer_1" data-name="Layer 1" xmlns="http://www.w3.org/2000/svg" viewBox="0 0 326 343.5"><defs><style>.cls-1,.cls-6{fill:#fff;}.cls-2{fill:#29abe2;}.cls-3{fill:#e6e6e6;}.cls-4,.cls-5{fill:none;stroke:#fff;stroke-miterlimit:10;}.cls-4{stroke-width:3px;}.cls-6{font-size:61.94px;font-family:Jokerman-Regular, Jokerman;}</style></defs><title>logo_portfolio</title><rect class="cls-1" width="326" height="227" rx="12" ry="12"/><rect class="cls-2" x="20" y="28.5" width="286" height="170" rx="12" ry="12"/><rect class="cls-1" x="119" y="222.5" width="88" height="36"/><polygon class="cls-1" points="126 245.5 88 245.5 79 277.5 247 277.5 240 245.5 126 245.5"/><rect class="cls-3" x="78.5" y="277.5" width="169" height="10"/><path class="cls-4" d="M256,342H78a14.63,14.63,0,0,0-3-5c-2-2,0,0-5-4"/><path class="cls-1" d="M88.66,302.5h174c12.5-4,16.32-15,16.95-21.19a15.45,15.45,0,0,0-2.21-9.66c-4.7-7.61-13.24-9.15-18.24-10.15h-23.5l-16-8s26-1,43,0c12.84.76,20,12.35,22.7,18a14.88,14.88,0,0,1,1.48,5.86c1.29,31.22-24.19,32.16-24.19,32.16h-223s-3-5,5-13,28-3,28-3c10-5,9,4,9,4,5,4,3,2,5,4Z"/><path class="cls-5" d="M163,263"/><rect class="cls-3" x="118.5" y="227" width="88" height="7"/><circle class="cls-3" cx="164" cy="211.5" r="3.5"/><text class="cls-6" transform="translate(103.33 134.86)">&lt;/ &gt;</text></svg>